<svg width="1920" height="662" viewBox="0 0 1920 662" fill="none" xmlns="http://www.w3.org/2000/svg">
<path d="M0 719V25.9999C135 12.9998 436 -70.5 574.467 160C856.426 629.366 1201.47 395.2 1384.5 160C1533.37 -31.2952 1791 5.50003 1920 26.0003V719H0Z" fill="url(#paint0_linear_358_590)"/>
<path d="M66.6361 25.3946C45.2339 28.4771 25.5089 31.318 8 33.2202V711H1912V32.8341C1847.69 22.7136 1755.23 9.92877 1660.67 21.5174C1562.92 33.4983 1463.55 71.446 1390.81 164.913C1298.89 283.037 1165.37 402.212 1018.17 432.053C944.28 447.032 867.073 439.459 790.449 398.13C713.964 356.876 638.592 282.282 567.609 164.12C500.24 51.9737 393.418 15.9009 285.473 9.67416C207.153 5.15635 129.629 16.3219 66.6361 25.3946Z" stroke="white" stroke-opacity="0.15" stroke-width="16"/>
<defs>
<linearGradient id="paint0_linear_358_590" x1="960" y1="189" x2="960" y2="719" gradientUnits="userSpaceOnUse">
<stop stop-color="#10A2D5"/>
<stop offset="1" stop-color="#156BAE"/>
</linearGradient>
</defs>
</svg>
