<svg width="1920" height="930" viewBox="0 0 1920 930" fill="none" xmlns="http://www.w3.org/2000/svg">
<path d="M518.5 112.682C346 181 -34 250 -327 -2L-327 929.682H2074.5V28C1776.5 292 1425.41 104.792 1281.5 70.5C925 -14.4491 691 44.3641 518.5 112.682Z" fill="url(#paint0_linear_358_589)"/>
<path d="M-319 15.1713C-24.56 256.866 350.406 187.859 521.446 120.12C692.739 52.2801 925.048 -6.21371 1279.65 78.2821C1302.66 83.7672 1330.89 93.1644 1363.74 104.105C1381.74 110.097 1401.12 116.552 1421.8 123.08C1479.8 141.388 1547.02 159.914 1619.21 169.046C1759.57 186.799 1918.98 169.036 2066.5 45.4526V921.682H-319L-319 15.1713Z" stroke="white" stroke-opacity="0.15" stroke-width="16"/>
<defs>
<linearGradient id="paint0_linear_358_589" x1="744.749" y1="-17" x2="744.999" y2="459" gradientUnits="userSpaceOnUse">
<stop offset="0.41" stop-color="#10A2D5"/>
<stop offset="1" stop-color="#156BAE"/>
</linearGradient>
</defs>
</svg>
