<svg width="1190" height="637" viewBox="0 0 720 537" fill="none" xmlns="http://www.w3.org/2000/svg">
<path d="M301.179 61.5574C227.198 92.0747 35.0668 179.721 -108.565 4.9714L-102.55 614H1053V0.891628C948.584 189.241 853.178 132.738 700.795 61.5574C508 -28.5 399.5 21 301.179 61.5574Z" fill="url(#paint0_linear_384_16)"/>
<path d="M-100.351 26.5508C-29.9664 102.47 50.4509 121.965 122.838 118.229C194.711 114.52 258.684 87.8979 296.717 72.0705C299.347 70.976 301.853 69.933 304.23 68.9529C306.763 67.908 309.299 66.8589 311.84 65.8078C358.827 46.3708 407.392 26.2813 466.335 20.5392C528.23 14.5094 602.122 24.2954 697.409 68.8056C704.432 72.0858 711.352 75.3442 718.173 78.5557C748.149 92.6701 776.203 105.879 802.547 116.057C834.923 128.564 865.501 136.822 894.96 136.548C949.422 136.041 997.248 106.528 1045 30.2685V606H-94.6288L-100.351 26.5508Z" stroke="white" stroke-opacity="0.15" stroke-width="16"/>
<defs>
<linearGradient id="paint0_linear_384_16" x1="506.846" y1="-50.4875" x2="515.5" y2="200" gradientUnits="userSpaceOnUse">
<stop offset="0.298277" stop-color="#10A2D5"/>
<stop offset="1" stop-color="#156BAE"/>
</linearGradient>
</defs>
</svg>
