<svg width="1374" height="645" viewBox="0 0 720 339" fill="none" xmlns="http://www.w3.org/2000/svg">
<path d="M-113.123 48.9954C-191.758 91.2198 -413.321 210.191 -579.158 35.4158L-572.21 644.746H762.45V0.284668C541.845 101.335 514 99.2457 350.115 48.951C122.237 -20.9825 -0.5 -11.4788 -113.04 48.951L-113.123 48.9954Z" fill="url(#paint0_linear_384_17)"/>
<path d="M-109.338 56.0435L-109.337 56.0431L-109.255 55.9992C-109.255 55.9991 -109.255 55.9989 -109.255 55.9988C0.657043 -3.0195 120.948 -13.0098 347.768 56.599C429.496 81.6805 478.96 95.3479 535.854 89.3277C590.433 83.5524 651.311 59.7196 754.45 12.7347V636.746H-564.301L-570.935 54.9099C-488.987 132.14 -395.296 144.22 -312.228 131.488C-224.917 118.106 -148.884 77.2782 -109.544 56.1542L-109.338 56.0435Z" stroke="white" stroke-opacity="0.15" stroke-width="16"/>
<defs>
<linearGradient id="paint0_linear_384_17" x1="131.642" y1="-20.0706" x2="133.076" y2="179.342" gradientUnits="userSpaceOnUse">
<stop stop-color="#10A2D5"/>
<stop offset="1" stop-color="#156BAE"/>
</linearGradient>
</defs>
</svg>
