<svg width="35" height="35" viewBox="0 0 35 35" fill="none" xmlns="http://www.w3.org/2000/svg">
<path d="M19.8882 29.6708H14.2215C8.55482 29.6708 5.72148 29.6708 3.73815 27.6875C1.89648 25.7042 1.89648 22.8708 1.89648 17.2042C1.89648 11.5375 1.89648 8.70415 3.87982 6.72082C5.72148 4.87915 8.55482 4.87915 14.2215 4.87915H19.8882C25.5548 4.87915 28.3882 4.87915 30.3715 6.86248C32.3548 8.70415 32.3548 11.5375 32.3548 17.2042C32.3548 22.8708 32.3548 25.7042 30.3715 27.6875C28.3882 29.6708 25.5548 29.6708 19.8882 29.6708ZM14.2215 7.00415C9.12148 7.00415 6.71315 7.00415 5.29648 8.42082C3.87982 9.83748 3.87982 12.2458 3.87982 17.3458C3.87982 22.4458 3.87982 24.8541 5.29648 26.2708C6.71315 27.6875 9.12148 27.6875 14.2215 27.6875H19.8882C24.9882 27.6875 27.3965 27.6875 28.8132 26.2708C30.2298 24.8541 30.2298 22.4458 30.2298 17.3458C30.2298 12.2458 30.2298 9.83748 28.8132 8.42082C27.3965 7.00415 24.9882 7.00415 19.8882 7.00415H14.2215Z" fill="white"/>
<path opacity="0.5" d="M17.0553 18.3375C15.0719 18.3375 13.6553 17.0625 10.9636 14.7959L7.84694 12.3875C7.42194 11.9625 7.42195 11.2542 7.70528 10.8292C8.13028 10.4042 8.69694 10.2625 9.26361 10.6875L12.3803 13.2375C14.7886 15.2209 15.9219 16.2125 17.1969 16.2125C18.3303 16.2125 19.3219 15.3625 22.0136 13.2375L25.1303 10.6875C25.5553 10.2625 26.2636 10.4042 26.6886 10.8292C27.1136 11.2542 26.9719 11.9625 26.5469 12.3875L23.4303 14.9375C20.4553 17.2042 19.0386 18.3375 17.0553 18.3375Z" fill="white"/>
</svg>
