<svg width="35" height="35" viewBox="0 0 35 35" fill="none" xmlns="http://www.w3.org/2000/svg">
<path opacity="0.5" d="M29.805 16.921C29.2383 16.921 28.8133 16.496 28.8133 15.9293C28.8133 15.9293 28.53 13.096 24.8466 9.55431C21.305 6.01265 18.4716 5.58765 18.4716 5.58765C17.905 5.58765 17.48 5.02098 17.48 4.45431C17.48 3.88765 18.0466 3.46265 18.6133 3.46265C18.755 3.46265 22.155 3.88765 26.405 7.99598C30.655 12.246 30.9383 15.646 30.9383 15.7876C30.9383 16.2126 30.5133 16.7793 29.805 16.921ZM25.13 16.496C25.6966 16.3543 25.98 15.7876 25.8383 15.221C25.8383 15.0793 25.2716 13.521 23.005 11.2543C20.7383 8.98765 19.18 8.56265 19.0383 8.42098C18.4716 8.27931 17.905 8.56265 17.7633 9.12931C17.6216 9.69598 17.905 10.2626 18.4716 10.4043C18.4716 10.4043 19.7466 10.8293 21.5883 12.671C23.43 14.5126 23.855 15.7876 23.855 15.7876C23.9966 16.2126 24.4216 16.496 24.8466 16.496H25.13Z" fill="white"/>
<path d="M20.8803 31.0875C17.7636 31.0875 13.2303 30.0959 8.69695 25.5625C3.88029 20.7459 3.03029 16.0709 3.17195 12.8125C3.17195 11.1125 4.02195 9.41253 5.72195 7.8542C6.99695 6.5792 8.69695 6.01254 10.2553 6.29587C11.8136 6.43754 13.0886 7.28753 13.797 8.7042L14.647 10.4042C15.6386 12.2459 15.3553 14.7959 13.6553 16.3542C13.372 16.6375 13.372 17.6292 14.9303 19.3292C16.4886 20.8875 17.622 20.8875 17.9053 20.6042C19.4636 19.0459 22.0136 18.6209 23.8553 19.6125L25.5553 20.4625C26.8303 21.1709 27.6803 22.4459 27.9636 24.0042C28.247 25.7042 27.5386 27.4042 26.4053 28.5375C24.847 30.0959 23.147 30.9459 21.447 31.0875C21.3053 30.9459 21.022 31.0875 20.8803 31.0875ZM9.54695 8.42087C8.69695 8.42087 7.84695 8.7042 7.28029 9.41253C6.43029 10.1209 5.43862 11.3959 5.43862 12.9542C5.29695 15.6459 6.14695 19.8959 10.2553 24.0042C14.5053 28.2542 18.6136 28.9625 21.3053 28.8209C22.722 28.8209 23.997 27.8292 24.847 26.9792C25.5553 26.2709 25.9803 25.1375 25.8386 24.1459C25.697 23.2959 25.272 22.5875 24.5636 22.1625L23.0053 21.4542C21.872 20.8875 20.4553 21.1709 19.4636 22.0209C19.322 22.1625 17.0553 24.2875 13.5136 20.7459C9.97195 17.2042 12.097 14.9375 12.2386 14.7959C13.2303 13.8042 13.5136 12.3875 12.8053 11.2542L11.9553 9.69587C11.5303 8.98753 10.822 8.56254 9.97195 8.42087H9.54695Z" fill="white"/>
</svg>
