<svg width="56" height="56" viewBox="0 0 56 56" fill="none" xmlns="http://www.w3.org/2000/svg">
<g id="play_arrow">
<mask id="mask0_340_684" style="mask-type:alpha" maskUnits="userSpaceOnUse" x="0" y="0" width="56" height="56">
<rect id="Bounding box" width="56" height="56" fill="#D9D9D9"/>
</mask>
<g mask="url(#mask0_340_684)">
<path id="play_arrow_2" d="M18.6667 40.0749V15.9249C18.6667 15.2638 18.9001 14.7096 19.3667 14.2624C19.8334 13.8152 20.3779 13.5916 21.0001 13.5916C21.1945 13.5916 21.3987 13.6207 21.6126 13.6791C21.8265 13.7374 22.0306 13.8249 22.2251 13.9416L41.2418 26.0166C41.5917 26.2499 41.8542 26.5416 42.0292 26.8916C42.2042 27.2416 42.2917 27.611 42.2917 27.9999C42.2917 28.3888 42.2042 28.7582 42.0292 29.1082C41.8542 29.4582 41.5917 29.7499 41.2418 29.9832L22.2251 42.0582C22.0306 42.1749 21.8265 42.2624 21.6126 42.3207C21.3987 42.3791 21.1945 42.4082 21.0001 42.4082C20.3779 42.4082 19.8334 42.1846 19.3667 41.7374C18.9001 41.2902 18.6667 40.736 18.6667 40.0749Z" fill="white"/>
</g>
</g>
</svg>
