<svg width="35" height="35" viewBox="0 0 35 35" fill="none" xmlns="http://www.w3.org/2000/svg">
<path d="M17.0553 33.0245C16.2053 33.0245 15.3553 32.8828 14.5053 32.4578C8.13029 29.4828 4.58862 21.2662 4.58862 15.1745C4.58862 8.23283 10.1136 2.56616 17.0553 2.56616C23.8553 2.56616 29.522 8.23283 29.522 15.1745C29.522 21.2662 26.122 29.4828 19.6053 32.4578C18.7553 32.7412 17.9053 33.0245 17.0553 33.0245ZM17.0553 4.5495C11.3886 4.5495 6.71362 9.2245 6.71362 15.0328C6.71362 21.5495 10.397 28.0662 15.3553 30.4745C16.347 30.8995 17.622 30.8995 18.6136 30.4745C23.572 28.2078 27.2553 21.5495 27.2553 15.0328C27.397 9.36616 22.722 4.5495 17.0553 4.5495Z" fill="white"/>
<path opacity="0.5" d="M17.0552 20.1329C14.0802 20.1329 11.6719 17.7245 11.6719 14.7495C11.6719 11.7745 14.0802 9.36621 17.0552 9.36621C20.0302 9.36621 22.4385 11.7745 22.4385 14.7495C22.4385 17.8662 20.0302 20.1329 17.0552 20.1329ZM17.0552 11.6329C15.3552 11.6329 13.7969 13.0495 13.7969 14.8912C13.7969 16.7329 15.2135 18.1495 17.0552 18.1495C18.7552 18.1495 20.3135 16.7329 20.3135 14.8912C20.3135 13.0495 18.7552 11.6329 17.0552 11.6329Z" fill="white"/>
</svg>
